With: Brendan Fraser, Josh Hutcherson and Anita Briem

Professor Trevor Anderson receives his teenager nephew Sean Anderson. He will spend ten days with his uncle while his mother, Elizabeth, prepares to move to Canada. She gives a box to Trevor that belonged to his missing brother, Max, and Trevor finds a book with references to the last journey of his brother. He decides to follow the steps of Max with Sean and they travel to Iceland, where they meet the guide Hannah Ásgeirsson. While climbing a mountain, there is a thunderstorm and they protect themselves in a cave. However, a lightening collapses the entrance and the trio is trapped in the cave. They seek an exit and falls in a hole, discovering a lost world in the center of the Earth. 

General:

Complete name                    : Journey to the Center of the Earth\Journey to the Center of the Earth.avi
Format                           : AVI
Format/Info                      : Audio Video Interleave
File size                        : 1.27 GiB
Duration                         : 1h 24mn
Overall bit rate                 : 2 166 Kbps

Video:

Format                           : MPEG-4 Visual
Format profile                   : Simple@L3
Format settings, BVOP            : No
Format settings, QPel            : No
Format settings, GMC             : No warppoints
Format settings, Matrix          : Default (H.263)
Codec ID                         : XVID
Codec ID/Hint                    : XviD
Duration                         : 1h 24mn
Bit rate                         : 1 707 Kbps
Width                            : 704 pixels
Height                           : 396 pixels
Display aspect ratio             : 16:9
Frame rate                       : 25.000 fps
Color space                      : YUV
Chroma subsampling               : 4:2:0
Bit depth                        : 8 bits
Scan type                        : Progressive
Bits/(Pixel*Frame)               : 0.245
Stream size                      : 1.00 GiB (79%)
Writing library                  : XviD 1.1.2 (UTC 2006-11-01)

Audio:

Format                           : AC-3
Format/Info                      : Audio Coding 3
Mode extension                   : CM (complete main)
Codec ID                         : 2000
Duration                         : 1h 24mn
Bit rate mode                    : Constant
Bit rate                         : 448 Kbps
Channel(s)                       : 6 channels
Channel positions                : Front: L C R, Side: L R, LFE
Sampling rate                    : 48.0 KHz
Bit depth                        : 16 bits
Stream size                      : 270 MiB (21%)
Alignment                        : Aligned on interleaves
Interleave, duration             : 32 ms (0.80 video frame)